<?xml version="1.0" encoding="iso-8859-1"?>
<!-- Generator: Adobe Illustrator 19.0.0, SVG Export Plug-In . SVG Version: 6.00 Build 0)  -->
<svg version="1.1" id="Capa_1" xmlns="http://www.w3.org/2000/svg" xmlns:xlink="http://www.w3.org/1999/xlink" x="0px" y="0px"
	 viewBox="0 0 512 512" style="enable-background:new 0 0 512 512;" xml:space="preserve">
<g>
	<g>
		<path d="M474.5,0H362c-16.542,0-30,13.458-30,30s13.458,30,30,30h47.574l-40.607,40.607L330.18,61.82
			c-5.666-5.666-13.199-8.787-21.213-8.787c-8.014,0-15.547,3.121-21.212,8.787c-5.667,5.666-8.788,13.2-8.788,21.213
			s3.121,15.547,8.787,21.213l38.787,38.787l-29.374,29.374C265.118,149.218,227.347,137,187.5,137C84.112,137,0,221.112,0,324.5
			S84.112,512,187.5,512S375,427.888,375,324.5c0-39.846-12.219-77.618-35.407-109.667l29.374-29.374l38.787,38.786
			c5.666,5.667,13.199,8.788,21.213,8.788c8.014,0,15.548-3.121,21.213-8.787c5.667-5.666,8.788-13.2,8.788-21.213
			s-3.121-15.547-8.787-21.213l-38.787-38.787L452,102.426V150c0,16.542,13.458,30,30,30s30-13.458,30-30V37.5
			C512,16.822,495.178,0,474.5,0z M497,150c0,8.271-6.729,15-15,15s-15-6.729-15-15V84.32c0-3.034-1.827-5.768-4.63-6.929
			c-2.804-1.161-6.028-0.519-8.174,1.626l-58.713,58.713c-2.929,2.929-2.929,7.678,0,10.606l44.09,44.09
			c2.834,2.833,4.395,6.6,4.395,10.607c0,4.006-1.561,7.773-4.395,10.606c-2.833,2.833-6.6,4.394-10.606,4.394
			s-7.773-1.561-10.606-4.394l-44.09-44.09c-2.93-2.929-7.678-2.929-10.607,0l-39.276,39.276c-2.674,2.674-2.938,6.92-0.618,9.906
			C347.472,249.225,360,285.798,360,324.5c0,95.117-77.383,172.5-172.5,172.5S15,419.617,15,324.5S92.383,152,187.5,152
			c38.702,0,75.276,12.528,105.769,36.231c2.985,2.321,7.231,2.057,9.906-0.618l39.276-39.276c2.929-2.929,2.929-7.678,0-10.606
			L298.36,93.64c-2.833-2.833-4.394-6.6-4.394-10.606c0-4.007,1.561-7.774,4.395-10.607c2.832-2.833,6.599-4.393,10.605-4.393
			c4.006,0,7.773,1.56,10.606,4.393l44.09,44.09c1.407,1.407,3.314,2.197,5.304,2.197s3.896-0.79,5.304-2.197l58.714-58.713
			c2.145-2.145,2.786-5.371,1.625-8.173c-1.16-2.803-3.896-4.63-6.929-4.63H362c-8.271,0-15-6.729-15-15s6.729-15,15-15h112.5
			c12.406,0,22.5,10.093,22.5,22.5V150z"/>
	</g>
</g>
<g>
	<g>
		<path d="M187.5,182c-32.694,0-63.451,10.779-88.943,31.171c-3.235,2.587-3.76,7.307-1.172,10.542
			c2.588,3.234,7.306,3.759,10.541,1.172C130.731,206.642,158.247,197,187.5,197c70.304,0,127.5,57.196,127.5,127.5
			S257.804,452,187.5,452S60,394.804,60,324.5c0-29.253,9.643-56.769,27.885-79.574c2.588-3.234,2.063-7.954-1.172-10.542
			c-3.234-2.588-7.953-2.063-10.541,1.171C55.779,261.049,45,291.805,45,324.5C45,403.075,108.925,467,187.5,467
			S330,403.075,330,324.5S266.075,182,187.5,182z"/>
	</g>
</g>
</svg>
